<svg xmlns="http://www.w3.org/2000/svg" width="920" height="438" viewBox="0 0 920 438">
<rect width="100%" height="100%" fill="#ffffff"/>
<text x="24" y="34" font-family="Arial, sans-serif" font-size="22" font-weight="700" fill="#111111">Top configurations by fitness score (F1)</text>
<text x="24" y="85" font-family="Arial, sans-serif" font-size="14" fill="#222222">rfe + xgboost (k=10)</text>
<rect x="300" y="69" width="500.00" height="21" rx="4" fill="#1f6feb"/>
<text x="810.0" y="85" font-family="Arial, sans-serif" font-size="14" fill="#111111">0.9851</text>
<text x="24" y="119" font-family="Arial, sans-serif" font-size="14" fill="#222222">info_gain + xgboost (k=10)</text>
<rect x="300" y="103" width="499.91" height="21" rx="4" fill="#0f9d58"/>
<text x="809.9079794003532" y="119" font-family="Arial, sans-serif" font-size="14" fill="#111111">0.9849</text>
<text x="24" y="153" font-family="Arial, sans-serif" font-size="14" fill="#222222">info_gain + xgboost (k=30)</text>
<rect x="300" y="137" width="499.70" height="21" rx="4" fill="#d97706"/>
<text x="809.7029008463014" y="153" font-family="Arial, sans-serif" font-size="14" fill="#111111">0.9845</text>
<text x="24" y="187" font-family="Arial, sans-serif" font-size="14" fill="#222222">l1 + xgboost (k=30)</text>
<rect x="300" y="171" width="499.70" height="21" rx="4" fill="#c2410c"/>
<text x="809.6963334619728" y="187" font-family="Arial, sans-serif" font-size="14" fill="#111111">0.9845</text>
<text x="24" y="221" font-family="Arial, sans-serif" font-size="14" fill="#222222">rfe + random_forest (k=10)</text>
<rect x="300" y="205" width="499.61" height="21" rx="4" fill="#7c3aed"/>
<text x="809.6143385266141" y="221" font-family="Arial, sans-serif" font-size="14" fill="#111111">0.9843</text>
<text x="24" y="255" font-family="Arial, sans-serif" font-size="14" fill="#222222">rfe + xgboost (k=20)</text>
<rect x="300" y="239" width="499.60" height="21" rx="4" fill="#b91c1c"/>
<text x="809.6030770816735" y="255" font-family="Arial, sans-serif" font-size="14" fill="#111111">0.9843</text>
<text x="24" y="289" font-family="Arial, sans-serif" font-size="14" fill="#222222">info_gain + xgboost (k=20)</text>
<rect x="300" y="273" width="499.60" height="21" rx="4" fill="#1f6feb"/>
<text x="809.5990974502165" y="289" font-family="Arial, sans-serif" font-size="14" fill="#111111">0.9843</text>
<text x="24" y="323" font-family="Arial, sans-serif" font-size="14" fill="#222222">chi2 + xgboost (k=10)</text>
<rect x="300" y="307" width="499.51" height="21" rx="4" fill="#0f9d58"/>
<text x="809.5113025952221" y="323" font-family="Arial, sans-serif" font-size="14" fill="#111111">0.9841</text>
<text x="24" y="357" font-family="Arial, sans-serif" font-size="14" fill="#222222">rfe + xgboost (k=30)</text>
<rect x="300" y="341" width="499.51" height="21" rx="4" fill="#d97706"/>
<text x="809.5087411293696" y="357" font-family="Arial, sans-serif" font-size="14" fill="#111111">0.9841</text>
<text x="24" y="391" font-family="Arial, sans-serif" font-size="14" fill="#222222">chi2 + xgboost (k=20)</text>
<rect x="300" y="375" width="499.31" height="21" rx="4" fill="#c2410c"/>
<text x="809.3106884046578" y="391" font-family="Arial, sans-serif" font-size="14" fill="#111111">0.9837</text>
</svg>
