<svg xmlns="http://www.w3.org/2000/svg" width="920" height="370" viewBox="0 0 920 370">
<rect width="100%" height="100%" fill="#ffffff"/>
<text x="24" y="34" font-family="Arial, sans-serif" font-size="22" font-weight="700" fill="#111111">Top configurations by F1 score</text>
<text x="24" y="85" font-family="Arial, sans-serif" font-size="14" fill="#222222">baseline + random_forest (k=all)</text>
<rect x="290" y="69" width="510.00" height="21" rx="4" fill="#2166ac"/>
<text x="810.0" y="85" font-family="Arial, sans-serif" font-size="14" fill="#111111">0.9916</text>
<text x="24" y="119" font-family="Arial, sans-serif" font-size="14" fill="#222222">mutual_info + random_forest (k=20)</text>
<rect x="290" y="103" width="509.85" height="21" rx="4" fill="#b2182b"/>
<text x="809.8504539684336" y="119" font-family="Arial, sans-serif" font-size="14" fill="#111111">0.9913</text>
<text x="24" y="153" font-family="Arial, sans-serif" font-size="14" fill="#222222">random_forest + random_forest (k=20)</text>
<rect x="290" y="137" width="509.78" height="21" rx="4" fill="#1b7837"/>
<text x="809.7818737229452" y="153" font-family="Arial, sans-serif" font-size="14" fill="#111111">0.9912</text>
<text x="24" y="187" font-family="Arial, sans-serif" font-size="14" fill="#222222">baseline + xgboost (k=all)</text>
<rect x="290" y="171" width="509.70" height="21" rx="4" fill="#762a83"/>
<text x="809.7044864346044" y="187" font-family="Arial, sans-serif" font-size="14" fill="#111111">0.9910</text>
<text x="24" y="221" font-family="Arial, sans-serif" font-size="14" fill="#222222">f_classif + random_forest (k=20)</text>
<rect x="290" y="205" width="509.56" height="21" rx="4" fill="#9970ab"/>
<text x="809.5582734722667" y="221" font-family="Arial, sans-serif" font-size="14" fill="#111111">0.9907</text>
<text x="24" y="255" font-family="Arial, sans-serif" font-size="14" fill="#222222">f_classif + xgboost (k=20)</text>
<rect x="290" y="239" width="509.49" height="21" rx="4" fill="#5aae61"/>
<text x="809.4892867724631" y="255" font-family="Arial, sans-serif" font-size="14" fill="#111111">0.9906</text>
<text x="24" y="289" font-family="Arial, sans-serif" font-size="14" fill="#222222">mutual_info + xgboost (k=20)</text>
<rect x="290" y="273" width="509.49" height="21" rx="4" fill="#2166ac"/>
<text x="809.4853518783252" y="289" font-family="Arial, sans-serif" font-size="14" fill="#111111">0.9906</text>
<text x="24" y="323" font-family="Arial, sans-serif" font-size="14" fill="#222222">mutual_info + random_forest (k=10)</text>
<rect x="290" y="307" width="509.41" height="21" rx="4" fill="#b2182b"/>
<text x="809.4128660221562" y="323" font-family="Arial, sans-serif" font-size="14" fill="#111111">0.9904</text>
</svg>
