<svg xmlns="http://www.w3.org/2000/svg" width="920" height="438" viewBox="0 0 920 438">
<rect width="100%" height="100%" fill="#ffffff"/>
<text x="24" y="34" font-family="Arial, sans-serif" font-size="22" font-weight="700" fill="#111111">Top configurations by fitness score (F1)</text>
<text x="24" y="85" font-family="Arial, sans-serif" font-size="14" fill="#222222">l1 (k=10)</text>
<rect x="300" y="69" width="500.00" height="21" rx="4" fill="#1f6feb"/>
<text x="810.0" y="85" font-family="Arial, sans-serif" font-size="14" fill="#111111">0.9792</text>
<text x="24" y="119" font-family="Arial, sans-serif" font-size="14" fill="#222222">backward_elimination (k=20)</text>
<rect x="300" y="103" width="499.66" height="21" rx="4" fill="#0f9d58"/>
<text x="809.6635934299561" y="119" font-family="Arial, sans-serif" font-size="14" fill="#111111">0.9785</text>
<text x="24" y="153" font-family="Arial, sans-serif" font-size="14" fill="#222222">forward_selection (k=20)</text>
<rect x="300" y="137" width="499.31" height="21" rx="4" fill="#d97706"/>
<text x="809.3068964266636" y="153" font-family="Arial, sans-serif" font-size="14" fill="#111111">0.9778</text>
<text x="24" y="187" font-family="Arial, sans-serif" font-size="14" fill="#222222">backward_elimination (k=10)</text>
<rect x="300" y="171" width="499.27" height="21" rx="4" fill="#c2410c"/>
<text x="809.2707239710998" y="187" font-family="Arial, sans-serif" font-size="14" fill="#111111">0.9777</text>
<text x="24" y="221" font-family="Arial, sans-serif" font-size="14" fill="#222222">info_gain (k=20)</text>
<rect x="300" y="205" width="498.95" height="21" rx="4" fill="#7c3aed"/>
<text x="808.9534661123657" y="221" font-family="Arial, sans-serif" font-size="14" fill="#111111">0.9771</text>
<text x="24" y="255" font-family="Arial, sans-serif" font-size="14" fill="#222222">l1 (k=20)</text>
<rect x="300" y="239" width="498.55" height="21" rx="4" fill="#b91c1c"/>
<text x="808.5510554129535" y="255" font-family="Arial, sans-serif" font-size="14" fill="#111111">0.9763</text>
<text x="24" y="289" font-family="Arial, sans-serif" font-size="14" fill="#222222">forward_selection (k=10)</text>
<rect x="300" y="273" width="497.16" height="21" rx="4" fill="#1f6feb"/>
<text x="807.1605397346459" y="289" font-family="Arial, sans-serif" font-size="14" fill="#111111">0.9736</text>
<text x="24" y="323" font-family="Arial, sans-serif" font-size="14" fill="#222222">forward_selection (k=5)</text>
<rect x="300" y="307" width="496.86" height="21" rx="4" fill="#0f9d58"/>
<text x="806.8646747842467" y="323" font-family="Arial, sans-serif" font-size="14" fill="#111111">0.9730</text>
<text x="24" y="357" font-family="Arial, sans-serif" font-size="14" fill="#222222">info_gain (k=10)</text>
<rect x="300" y="341" width="496.04" height="21" rx="4" fill="#d97706"/>
<text x="806.0380657746978" y="357" font-family="Arial, sans-serif" font-size="14" fill="#111111">0.9714</text>
<text x="24" y="391" font-family="Arial, sans-serif" font-size="14" fill="#222222">backward_elimination (k=5)</text>
<rect x="300" y="375" width="495.54" height="21" rx="4" fill="#c2410c"/>
<text x="805.5363009074946" y="391" font-family="Arial, sans-serif" font-size="14" fill="#111111">0.9704</text>
</svg>
